<svg width="40" height="40" viewBox="0 0 40 40" fill="none" xmlns="http://www.w3.org/2000/svg">
<g clip-path="url(#clip0_27_3)">
<path fill-rule="evenodd" clip-rule="evenodd" d="M20.0005 0.833328C15.2525 0.835792 10.6603 2.51743 7.04482 5.57753C3.42939 8.63764 1.02655 12.8767 0.265948 17.5367C-0.49465 22.1966 0.436585 26.9737 2.89316 31.0136C5.34973 35.0536 9.17144 38.0929 13.6749 39.5883C14.6685 39.7727 15.0427 39.1569 15.0427 38.6333C15.0427 38.1097 15.0228 36.5917 15.0162 34.932C9.45237 36.134 8.27668 32.5841 8.27668 32.5841C7.36925 30.2791 6.05777 29.6732 6.05777 29.6732C4.2429 28.4416 6.19356 28.4646 6.19356 28.4646C8.20383 28.6062 9.2603 30.5162 9.2603 30.5162C11.0421 33.5556 13.9399 32.6763 15.0791 32.1626C15.258 30.8751 15.7779 29.9992 16.3509 29.5019C11.9064 29.0014 7.23677 27.2956 7.23677 19.6757C7.20922 17.6995 7.94674 15.7884 9.29673 14.3378C9.09139 13.8373 8.40584 11.8154 9.49211 9.06905C9.49211 9.06905 11.1712 8.53559 14.993 11.1074C18.2712 10.216 21.7298 10.216 25.0079 11.1074C28.8264 8.53559 30.5022 9.06905 30.5022 9.06905C31.5918 11.8088 30.9063 13.8307 30.7009 14.3378C32.0552 15.7886 32.7942 17.7031 32.7642 19.6823C32.7642 27.3187 28.0846 29.0014 23.6335 29.492C24.3489 30.1111 24.9881 31.3196 24.9881 33.1769C24.9881 35.8376 24.9649 37.978 24.9649 38.6333C24.9649 39.1635 25.3259 39.7826 26.3393 39.5883C30.8433 38.0928 34.6654 35.0528 37.1219 31.0122C39.5784 26.9716 40.5092 22.1938 39.7477 17.5334C38.9863 12.873 36.5822 8.63392 32.9656 5.57434C29.349 2.51476 24.7556 0.83423 20.0071 0.833328H20.0005Z" fill="white"/>
<path d="M7.5741 29.4466C7.53105 29.5629 7.37208 29.5977 7.24292 29.5163C7.11376 29.4349 7.01773 29.2838 7.06409 29.1636C7.11046 29.0435 7.26611 29.0124 7.39527 29.0938C7.52443 29.1752 7.62378 29.3303 7.5741 29.4466Z" fill="white"/>
<path d="M8.38546 30.3809C8.31688 30.4211 8.23841 30.4324 8.1635 30.4127C8.08858 30.3929 8.02188 30.3435 7.9748 30.2728C7.84564 30.1106 7.81913 29.8867 7.91849 29.7863C8.01784 29.6859 8.19669 29.7323 8.32585 29.8944C8.45501 30.0566 8.48482 30.2805 8.38546 30.3809Z" fill="white"/>
<path d="M9.1737 31.4289C9.05116 31.5146 8.84251 31.4289 8.7266 31.2575C8.69454 31.2268 8.66906 31.1899 8.65164 31.1492C8.63423 31.1084 8.62524 31.0645 8.62524 31.0202C8.62524 30.9759 8.63423 30.9321 8.65164 30.8913C8.66906 30.8505 8.69454 30.8137 8.7266 30.7829C8.84913 30.7005 9.05779 30.7829 9.1737 30.951C9.28961 31.1191 9.29293 31.3432 9.1737 31.4289Z" fill="white"/>
<path d="M10.2434 32.5353C10.1341 32.6573 9.91219 32.6243 9.73004 32.4595C9.54789 32.2947 9.50482 32.0706 9.61411 31.9519C9.7234 31.8333 9.9453 31.8662 10.1341 32.0277C10.3228 32.1893 10.3593 32.4167 10.2434 32.5353Z" fill="white"/>
<path d="M11.7436 33.2554C11.6939 33.4369 11.4687 33.5179 11.2435 33.4407C11.0183 33.3635 10.8693 33.1473 10.9123 32.962C10.9554 32.7767 11.1839 32.6917 11.4124 32.7767C11.6409 32.8616 11.7866 33.0662 11.7436 33.2554Z" fill="white"/>
<path d="M13.3797 33.3421C13.3797 33.5313 13.1943 33.6934 12.9558 33.6973C12.7174 33.7011 12.522 33.5467 12.522 33.3575C12.522 33.1684 12.7074 33.0062 12.9459 33.0023C13.1843 32.9985 13.3797 33.1491 13.3797 33.3421Z" fill="white"/>
<path d="M14.9032 33.0777C14.933 33.2669 14.7674 33.4638 14.529 33.5101C14.2905 33.5565 14.0819 33.4445 14.0521 33.2592C14.0223 33.0739 14.1945 32.8731 14.4263 32.8229C14.6581 32.7728 14.8734 32.8886 14.9032 33.0777Z" fill="white"/>
</g>
<defs>
<clipPath id="clip0_27_3">
<rect width="40" height="40" fill="white"/>
</clipPath>
</defs>
</svg>
